<svg width="17" height="16" viewBox="0 0 17 16" fill="none" xmlns="http://www.w3.org/2000/svg">
<g id="AI magic">
<path id="Ellipse 283 (Stroke)" d="M2 3C2 2.17157 2.67157 1.5 3.5 1.5C4.32843 1.5 5 2.17157 5 3C5 3.82843 4.32843 4.5 3.5 4.5C2.67157 4.5 2 3.82843 2 3Z" fill="white"/>
<path id="Ellipse 284 (Stroke)" fill-rule="evenodd" clip-rule="evenodd" d="M10.6667 12C10.6667 11.3557 11.1891 10.8334 11.8334 10.8334C12.4777 10.8334 13.0001 11.3557 13.0001 12C13.0001 12.6444 12.4777 13.1667 11.8334 13.1667C11.1891 13.1667 10.6667 12.6444 10.6667 12Z" fill="white"/>
<path id="Vector 137 (Stroke)" d="M7.2222 3.67348C7.3919 3.05122 8.27452 3.05122 8.44423 3.67348L9.35822 7.02476C9.37374 7.0817 9.41822 7.12618 9.47516 7.14171L12.8264 8.05569C13.4487 8.2254 13.4487 9.10802 12.8264 9.27773L9.47516 10.1917C9.41822 10.2072 9.37374 10.2517 9.35822 10.3087L8.44423 13.6599C8.27452 14.2822 7.3919 14.2822 7.2222 13.6599L6.30821 10.3087C6.29268 10.2517 6.2482 10.2072 6.19127 10.1917L2.83998 9.27773C2.21773 9.10802 2.21773 8.2254 2.83998 8.05569L6.19127 7.14171C6.2482 7.12618 6.29268 7.0817 6.30821 7.02476L7.2222 3.67348Z" fill="white"/>
<path id="Vector" d="M15.1667 3.66671C15.1667 3.40899 14.9577 3.20004 14.7 3.20004C13.9269 3.20004 13.3 2.57319 13.3 1.80004C13.3 1.54233 13.091 1.33337 12.8333 1.33337C12.5756 1.33337 12.3667 1.54233 12.3667 1.80004C12.3667 2.57319 11.74 3.20004 10.9667 3.20004C10.709 3.20004 10.5 3.40899 10.5 3.66671C10.5 3.92442 10.709 4.13337 10.9667 4.13337C11.74 4.13337 12.3667 4.76 12.3667 5.53337C12.3667 5.79109 12.5756 6.00004 12.8333 6.00004C13.091 6.00004 13.3 5.79109 13.3 5.53337C13.3 4.76 13.9269 4.13337 14.7 4.13337C14.9577 4.13337 15.1667 3.92442 15.1667 3.66671Z" fill="white"/>
</g>
</svg>
