<svg width="32" height="32" viewBox="0 0 32 32" fill="none" xmlns="http://www.w3.org/2000/svg">
<path fill-rule="evenodd" clip-rule="evenodd" d="M8.3335 10.6667C8.3335 6.43248 11.766 3 16.0002 3C20.2343 3 23.6668 6.43248 23.6668 10.6667V12.4752C24.12 12.5524 24.5392 12.6757 24.9368 12.8783C25.8776 13.3577 26.6425 14.1226 27.1219 15.0634C27.4236 15.6557 27.5495 16.2959 27.609 17.0247C27.6668 17.7326 27.6668 18.6067 27.6668 19.6905V21.6428C27.6668 22.7266 27.6668 23.6008 27.609 24.3086C27.5495 25.0375 27.4236 25.6777 27.1219 26.27C26.6425 27.2108 25.8776 27.9757 24.9368 28.455C24.3445 28.7568 23.7043 28.8826 22.9755 28.9422C22.2676 29 21.3934 29 20.3097 29H11.6907C10.6069 29 9.73275 29 9.02487 28.9422C8.29602 28.8826 7.65584 28.7568 7.06354 28.455C6.12273 27.9757 5.35783 27.2108 4.87846 26.27C4.57668 25.6777 4.45086 25.0375 4.39131 24.3086C4.33348 23.6007 4.33349 22.7266 4.3335 21.6428V19.6905C4.33349 18.6067 4.33348 17.7326 4.39131 17.0247C4.45086 16.2959 4.57668 15.6557 4.87846 15.0634C5.35783 14.1226 6.12273 13.3577 7.06354 12.8783C7.46116 12.6757 7.88037 12.5524 8.3335 12.4752V10.6667ZM10.3335 12.3388C10.745 12.3333 11.196 12.3333 11.6907 12.3333H20.3097C20.8044 12.3333 21.2554 12.3333 21.6668 12.3388V10.6667C21.6668 7.53705 19.1298 5 16.0002 5C12.8706 5 10.3335 7.53705 10.3335 10.6667V12.3388ZM9.18774 14.3845C8.58257 14.434 8.23488 14.5261 7.97152 14.6603C7.40704 14.9479 6.9481 15.4069 6.66048 15.9714C6.52629 16.2347 6.43412 16.5824 6.38467 17.1876C6.33427 17.8044 6.3335 18.5967 6.3335 19.7333V21.6C6.3335 22.7366 6.33427 23.5289 6.38467 24.1458C6.43412 24.7509 6.52629 25.0986 6.66048 25.362C6.9481 25.9265 7.40704 26.3854 7.97152 26.673C8.23488 26.8072 8.58257 26.8994 9.18774 26.9488C9.80458 26.9992 10.5969 27 11.7335 27H20.2668C21.4034 27 22.1957 26.9992 22.8126 26.9488C23.4178 26.8994 23.7654 26.8072 24.0288 26.673C24.5933 26.3854 25.0522 25.9265 25.3398 25.362C25.474 25.0986 25.5662 24.7509 25.6157 24.1458C25.666 23.5289 25.6668 22.7366 25.6668 21.6V19.7333C25.6668 18.5967 25.666 17.8044 25.6157 17.1876C25.5662 16.5824 25.474 16.2347 25.3398 15.9714C25.0522 15.4069 24.5933 14.9479 24.0288 14.6603C23.7654 14.5261 23.4178 14.434 22.8126 14.3845C22.1957 14.3341 21.4034 14.3333 20.2668 14.3333H11.7335C10.5969 14.3333 9.80458 14.3341 9.18774 14.3845ZM16.0002 18.3333C16.5524 18.3333 17.0002 18.781 17.0002 19.3333V22C17.0002 22.5523 16.5524 23 16.0002 23C15.4479 23 15.0002 22.5523 15.0002 22V19.3333C15.0002 18.781 15.4479 18.3333 16.0002 18.3333Z" fill="#2B244C"/>
</svg>
